<svg version="1.1" xmlns="http://www.w3.org/2000/svg" viewBox="-68.08640593900353 -194.90420432562644 141.46678456041258 384.4610049738883" fill="none" stroke="black" stroke-width="0.6%" vector-effect="non-scaling-stroke">
    <path d="M -67.0864 30.66482 L -67.0864 -173.4843 L -22.34754 -91.84463 L 22.36944 -112.26453 L -22.36942 -193.9042 L -67.0864 -173.4843" />
    <path d="M -22.34754 102.09953 L -22.34754 -91.84463" />
    <path d="M -67.0864 30.66482 L -24.89893 107.6487" />
    <path d="M 22.36944 76.85703 L 22.36944 -112.26453" />
    <path d="M 0.01095 81.67962 A 50 45.64243 360 0 1 72.38038 122.49946 L 72.38038 142.91437" />
    <path d="M 72.38038 122.49946 A 50 45.64243 360 0 1 -27.61962 122.49946 L -27.61962 142.91437 A 50 45.64243 180 0 0 72.38038 142.91437" />
    <path d="M -27.61962 122.49946 A 50 45.64243 360 0 1 0.01095 81.67962" />
</svg>